# xmcd
#
# Track frame offsets:
# 150
# 22272
# 35963
# 53955
# 71144
# 93415
# 119424
# 141260
# 158989
# 173454
# 188685
# 214177
#
# Disc length: 3002 seconds
#
# Revision: 7
# Processed by: cddbd v1.4PL0 Copyright (c) Steve Scherf et al.
# Submitted via: Axialis_AX_CDPlayer 2.6
#
DISCID=b40bb80c
DTITLE=Earl Scruggs - Earl Scruggs and Friends
DYEAR=1900
DGENRE=
TTITLE0=Earl Scruggs with Elton John/Country Comfort 
TTITLE1=Earl Scruggs with Dwight Yoakam/Borrowed Love 
TTITLE2=Earl Scruggs with Billy Bob Thornton/Ring Of Fire 
TTITLE3=Earl Scruggs with Gary Scruggs and Travis Tritt/True Love Never Dies 
TTITLE4=Earl Scruggs with Melissa Ethridge/The Angels 
TTITLE5=Earl Scruggs with Sting/Fill Her Up 
TTITLE6=Earl Scruggs with Glen Duncan, Randy Scruggs, Steve Martin, Vince Gi
TTITLE6=ll/Foggy \nMountain Breakdown 
TTITLE7=Earl Scruggs with Randy Scruggs/Somethin' Just Ain't Right 
TTITLE8=Earl Scruggs with Vince Gill and Rosanne Cash/I Found Love 
TTITLE9=Earl Scruggs with John Fogerty/Blue Ridge Mountain Blues 
TTITLE10=Earl Scruggs with Don Henley and Johnny Cash/Passin' Thru 
TTITLE11=Earl Scruggs - Foggy Mountain - Rockfoggy Mountain
EXTD=
EXTT0=
EXTT1=
EXTT2=
EXTT3=
EXTT4=
EXTT5=
EXTT6=
EXTT7=
EXTT8=
EXTT9=
EXTT10=
EXTT11=
PLAYORDER=
